# xmcd
#
# Track frame offsets:
# 150
# 22876
# 39598
# 65452
# 77026
# 94294
# 118905
# 135724
# 153482
# 179580
#
# Disc length: 2711 seconds
#
#
# Revision: 0
# Processed by: cddbd v1.5.1PL2 Copyright (c) Steve Scherf et al.
# Submitted via: FreeRIP 2.931 
#
DISCID=850a950a
DTITLE=Marcos Antonio - Um passeio pela Harpa Cristã
DYEAR=2004
DGENRE=Gospel
TTITLE0=O Exilado
TTITLE1=A Formosa Jeruzalem
TTITLE2=As Firmes Promesas
TTITLE3=Pensando em Jessus
TTITLE4=tentado não seda
TTITLE5=Fala Jesus Querido
TTITLE6=Chuva de Graça
TTITLE7=Grato a ti
TTITLE8=Deus Veralá Por ti
TTITLE9=Os Guerreirosse Preparam
EXTD=
EXTT0=
EXTT1=
EXTT2=
EXTT3=
EXTT4=
EXTT5=
EXTT6=
EXTT7=
EXTT8=
EXTT9=
PLAYORDER=
